<svg width="76" height="76" viewBox="0 0 76 76" fill="none" xmlns="http://www.w3.org/2000/svg">
<path d="M29.7235 54.5823C29.7235 56.95 29.2509 58.9862 28.3058 60.6909C27.3606 62.3483 26.132 63.6978 24.6197 64.7396C23.1548 65.7814 21.4772 66.539 19.5869 67.0126C17.7439 67.4861 15.9008 67.7229 14.0578 67.7229C12.1676 67.7229 10.5372 67.5335 9.16674 67.1546C7.79629 66.7758 6.63849 66.6574 5.40981 66.0892C4.6537 65.8524 3.96848 65.663 3.35414 65.5209C2.7398 65.3315 2.12546 65.2368 1.51112 65.2368V57.1394H2.21997C2.21997 58.9388 2.45626 62.514 3.35414 63.6031C3.85061 65.0237 4.18113 65.5209 5.40981 66.0892C6.63849 66.6574 7.44186 66.8277 8.67054 67.0171C9.87587 67.7229 13.4907 67.7229 14.0578 67.7229C16.0899 67.7229 18.6893 67.4283 20.1542 66.8601C21.6192 66.2445 22.0445 64.8343 22.9897 63.8872C23.9348 62.8928 24.1944 60.5252 24.6197 59.3413C25.0923 58.1575 24.8324 56.3817 24.8324 55.1505C24.8324 53.5879 24.5016 52.2857 23.84 51.2439C23.1784 50.1548 22.3042 49.2077 21.2172 48.4027C20.1776 47.5977 18.9725 46.911 17.6021 46.3428C16.2316 45.7746 14.8376 45.2063 13.4199 44.6381C11.8131 44.0225 10.23 43.3832 8.67054 42.7203C7.11106 42.0573 5.71698 41.2523 4.4883 40.3052C3.25962 39.3108 2.26723 38.1507 1.51112 36.8248C0.755008 35.4515 0.376953 33.7705 0.376953 31.7816C0.376953 29.6981 0.778637 27.8987 1.582 26.3833C2.38537 24.8207 3.44865 23.5421 4.77184 22.5477C6.14229 21.5533 7.67814 20.8193 9.37939 20.3458C11.1279 19.8249 12.9 19.5645 14.6958 19.5645C15.9245 19.5645 17.0823 19.6592 18.1692 19.8486C19.2561 19.9906 20.2957 20.18 21.2881 20.4168C22.0915 20.6062 22.8712 20.772 23.6273 20.914C24.3835 21.0087 25.1159 21.0561 25.8248 21.0561V28.3722H25.1159C25.0214 25.9098 23.9218 24.5288 22.575 22.9506C21.2282 21.3724 18.3109 19.5671 15.0502 19.5671C13.1599 19.5671 10.6081 19.6828 9.37939 20.3458C8.19797 20.9614 5.4807 21.6006 4.77184 22.5477C4.06299 23.4474 2.72708 27.3112 4.13933 28.5942C3.90304 29.6359 4.4883 30.4228 4.4883 31.2278C4.4883 32.5537 5.4807 33.6047 6.04778 34.5518C6.66212 35.4989 7.46549 36.3276 8.45788 37.0379C9.45028 37.7482 10.5844 38.3874 11.8604 38.9557C13.1836 39.5239 14.554 40.0685 15.9717 40.5894C17.5785 41.205 19.2088 41.8679 20.8628 42.5782C22.5168 43.2885 23.9818 44.1645 25.2577 45.2063C26.5809 46.2481 27.6442 47.5266 28.4476 49.0419C29.2982 50.5573 29.7235 52.404 29.7235 54.5823Z" fill="#2F2C29"/>
<path d="M58.7508 74.869H59.3208C61.145 74.869 62.0571 74.0397 62.0571 72.381C62.0571 71.7778 61.9431 71.1369 61.7151 70.4583L51.454 42.9762L27.2104 43.2735L17.4786 68.9881C17.2506 69.5913 17.4786 71.8614 19.1888 72.9901C20.5693 73.9012 20.3175 73.7426 21.8225 74.4951C22.7422 74.9549 23.1412 74.869 23.7493 74.869H24.3193V76H11.6641V74.869H12.2341C13.2222 74.869 14.1723 74.3036 15.0844 73.1726C16.0725 71.9663 16.8706 70.5714 17.4786 68.9881L43.5873 0L69.1258 68.3095C69.6579 69.8175 70.3799 71.2877 71.292 72.7202C72.2801 74.1528 73.5342 74.869 75.0544 74.869H75.6245V76H58.7508V74.869ZM28.7781 39.131H50.1999L39.1732 11.6634L28.7781 39.131Z" fill="#2F2C29"/>
</svg>
